<?xml version="1.0" standalone="no"?>
<!DOCTYPE svg PUBLIC "-//W3C//DTD SVG 20010904//EN"
 "http://www.w3.org/TR/2001/REC-SVG-20010904/DTD/svg10.dtd">
<svg version="1.0" xmlns="http://www.w3.org/2000/svg"
 width="180.000000pt" height="180.000000pt" viewBox="0 0 180.000000 180.000000"
 preserveAspectRatio="xMidYMid meet">
<metadata>
Created by potrace 1.11, written by Peter Selinger 2001-2013
</metadata>
<g transform="translate(0.000000,180.000000) scale(0.100000,-0.100000)"
fill="#000000" stroke="none">
<path d="M605 1579 c-55 -5 -151 -6 -212 -3 l-113 6 -10 -26 c-5 -15 -10 -41
-10 -57 0 -29 1 -29 55 -29 42 0 60 -5 75 -20 19 -19 20 -33 20 -512 0 -271
-5 -511 -10 -532 -11 -51 -33 -72 -100 -95 -53 -19 -55 -21 -61 -63 -4 -24 -6
-44 -5 -45 1 -1 115 1 254 4 l254 6 9 24 c5 13 9 38 9 54 l0 29 -75 0 c-74 0
-76 1 -96 33 -20 30 -20 43 -16 250 3 120 7 221 11 224 11 11 295 23 478 21
l183 -3 3 -135 c2 -74 -2 -180 -8 -235 -12 -117 -27 -139 -103 -154 -26 -5
-50 -10 -52 -12 -2 -2 -6 -25 -10 -51 l-7 -48 251 0 c279 0 265 -3 273 70 l3
35 -78 5 c-63 4 -82 9 -94 25 -28 36 -3 1029 27 1085 12 23 43 41 85 50 24 5
31 13 38 43 14 58 5 70 -46 61 -23 -3 -127 -7 -232 -8 l-190 -1 -5 -41 c-8
-58 -4 -64 43 -64 69 0 86 -9 97 -49 5 -20 10 -127 10 -238 l0 -201 -57 -6
c-32 -4 -181 -9 -330 -12 l-273 -6 0 157 c0 158 12 282 32 321 9 19 31 29 106
50 7 2 12 22 12 54 0 41 -3 50 -17 49 -10 -1 -63 -6 -118 -10z"/>
</g>
</svg>
